<?xml version="1.0" standalone="no"?>
<!DOCTYPE svg PUBLIC "-//W3C//DTD SVG 20010904//EN"
 "http://www.w3.org/TR/2001/REC-SVG-20010904/DTD/svg10.dtd">
<svg version="1.0" xmlns="http://www.w3.org/2000/svg"
 width="200.000000pt" height="200.000000pt" viewBox="0 0 200.000000 200.000000"
 preserveAspectRatio="xMidYMid meet">

<g transform="translate(0.000000,200.000000) scale(0.100000,-0.100000)"
fill="#000000" stroke="none">
<path d="M0 1000 l0 -1000 1000 0 1000 0 0 1000 0 1000 -1000 0 -1000 0 0
-1000z m1089 529 c39 -14 39 -23 0 -40 -18 -7 -45 -23 -60 -37 l-29 -24 -29
24 c-15 14 -42 30 -60 37 -17 8 -31 17 -31 20 0 26 150 40 209 20z m-369 -109
c-7 -13 -15 -43 -19 -68 l-6 -45 -55 -12 c-30 -7 -63 -15 -73 -20 -18 -7 -18
-6 -2 31 25 61 58 94 120 124 46 22 51 20 35 -10z m188 -1 c42 -24 52 -34 46
-47 -19 -45 -43 -119 -44 -135 0 -16 -3 -16 -32 6 -18 13 -51 31 -73 39 -50
19 -55 46 -24 117 26 62 48 66 127 20z m311 -20 c31 -71 26 -98 -24 -117 -22
-8 -55 -26 -72 -39 -30 -22 -33 -22 -33 -6 -1 16 -25 90 -44 135 -6 13 4 23
46 47 79 46 101 42 127 -20z m145 3 c31 -25 44 -43 66 -84 25 -46 25 -52 3
-43 -10 5 -43 13 -73 20 l-55 12 -6 45 c-4 25 -12 55 -18 66 -6 11 -11 23 -11
26 0 9 72 -23 94 -42z m-347 -119 c15 -58 4 -163 -17 -163 -5 0 -13 12 -17 28
-15 57 -4 162 17 162 5 0 13 -12 17 -27z m-300 -87 c7 -22 24 -53 37 -71 l24
-31 -69 -18 c-38 -10 -71 -22 -74 -27 -12 -18 -25 -8 -55 44 -44 77 -41 100
18 126 26 11 60 20 76 18 24 -2 31 -9 43 -41z m684 23 c60 -26 63 -49 19 -126
-30 -52 -43 -62 -55 -44 -3 5 -36 17 -74 27 l-69 18 24 31 c13 18 24 34 24 37
0 3 7 22 15 42 18 43 42 46 116 15z m-583 -13 c45 -24 113 -108 99 -123 -20
-20 -137 92 -137 132 0 8 9 6 38 -9z m402 9 c0 -39 -117 -152 -137 -132 -8 9
24 61 54 88 40 37 83 60 83 44z m-709 -126 c7 -18 23 -45 37 -60 l24 -29 -24
-29 c-14 -15 -30 -42 -37 -60 -17 -39 -26 -39 -40 0 -21 61 -8 209 19 209 4 0
13 -14 21 -31z m1018 0 c15 -42 14 -134 -1 -176 -15 -41 -22 -41 -39 -2 -7 18
-23 45 -37 60 l-24 29 24 29 c14 15 30 42 37 60 17 39 26 39 40 0z m-663 -76
c54 -20 -55 -50 -125 -34 -66 14 -69 27 -9 42 32 7 105 3 134 -8z m430 0 c54
-20 -55 -50 -125 -34 -66 14 -69 27 -9 42 32 7 105 3 134 -8z m-661 -62 c3 -5
36 -17 74 -27 l69 -18 -24 -31 c-13 -18 -30 -49 -37 -71 -17 -49 -45 -54 -116
-23 -62 26 -66 48 -21 127 30 51 43 61 55 43z m785 -43 c45 -79 41 -101 -21
-127 -71 -31 -98 -26 -117 24 -8 22 -25 54 -38 71 l-22 30 69 18 c38 10 71 22
74 27 12 18 25 8 55 -43z m-500 7 c0 -39 -117 -152 -137 -132 -8 9 24 61 54
88 40 37 83 60 83 44z m198 -9 c45 -24 113 -108 99 -123 -20 -20 -137 92 -137
132 0 8 9 6 38 -9z m-102 -53 c15 -60 5 -163 -16 -163 -21 0 -31 103 -16 163
3 15 11 27 16 27 5 0 13 -12 16 -27z m-67 -212 c12 -21 11 -26 -5 -38 -38 -29
-96 -54 -117 -51 -26 4 -67 77 -67 120 0 23 8 30 60 54 33 15 65 33 72 41 10
12 15 4 28 -44 9 -32 22 -69 29 -82z m246 77 c50 -19 55 -46 24 -117 -26 -62
-48 -66 -127 -20 -42 24 -52 34 -46 47 19 45 43 119 44 135 0 16 3 16 33 -6
17 -13 50 -31 72 -39z m-555 -13 l55 -12 6 -45 c4 -25 12 -55 19 -68 16 -30
11 -32 -35 -11 -48 22 -90 63 -116 113 -23 46 -24 52 -1 43 9 -5 42 -13 72
-20z m810 20 c0 -16 -42 -84 -66 -109 -27 -27 -104 -69 -112 -61 -2 2 2 13 8
25 7 13 15 43 19 69 6 46 6 46 53 52 25 4 55 12 65 18 20 12 33 14 33 6z
m-426 -174 c9 -10 34 -26 56 -36 22 -10 40 -21 40 -26 0 -13 -63 -29 -118 -29
-54 0 -122 17 -122 30 0 4 18 15 40 25 22 10 47 26 56 36 10 11 20 19 24 19 4
0 14 -8 24 -19z"/>
</g>
</svg>
